<?xml version="1.0" standalone="no"?>
<!DOCTYPE svg PUBLIC "-//W3C//DTD SVG 1.0//EN" "http://www.w3.org/TR/2001/REC-SVG-20010904/DTD/svg10.dtd">
<svg width="637" height="600" viewBox="0 0 637 600" xmlns="http://www.w3.org/2000/svg">
<title>Triple spiral labyrinth (variant)</title>
<g transform="translate(-8.5,679)scale(0.106,-0.106)" stroke="rgb(0,0,0)" fill="none">
<g stroke="none" fill="rgb(0,0,0)">
<circle cx="1633.54" cy="2425.75" r="1260"/>
<circle cx="4436.84" cy="2327.86" r="1260"/>
<circle cx="3119.97" cy="4804.53" r="1260"/>
<path d="M846.613,1166.4
C1067.67,1028.26,1321.2,950.751,1581.72,941.654
C2401.36,913.032,3089.02,1554.28,3117.64,2373.92
C3136.15,2904.14,2870.4,3403.96,2420.47,3685.1Z"/>
<path d="M5920.93,2276.03
C5949.55,3095.67,5308.31,3783.33,4488.66,3811.95
C3669.02,3840.57,2981.36,3199.33,2952.74,2379.68Z"/>
<path d="M2422.8,6115.7
C1954.36,5866.63,1654.39,5386.57,1635.87,4856.35
C1607.25,4036.71,2248.5,3349.05,3068.14,3320.43
C3328.66,3311.33,3586.97,3370.97,3817.13,3493.35Z"/>
</g>
<g stroke-width="165" stroke-linecap="round">
<path d="M2245.6,3405.25
C2166.99,3462.16,2067.97,3515.49,1977.26,3550.01
C1884.96,3585.13,1773.55,3611.35,1675.29,3621.27
C1575.33,3631.37,1458.96,3627.67,1359.81,3611.44
C1258.97,3594.93,1145.66,3560.54,1052.57,3518.4
C957.927,3475.55,855.765,3411.85,775.503,3345.88
C693.921,3278.83,610.463,3189.33,549.101,3103.38
C486.746,3016.05,428.473,2906.19,390.944,2805.65
C352.817,2703.51,324.636,2580.35,314.347,2471.82
C303.896,2361.58,308.741,2233.35,327.278,2124.17
C346.102,2013.32,384.665,1888.85,431.631,1786.68
C479.311,1682.96,549.927,1571.1,622.904,1483.31
C696.974,1394.21,795.668,1303.18,890.331,1236.36
C986.392,1168.56,1107.09,1105.35,1217.46,1064.81
C1329.44,1023.68,1464.34,993.532,1583.16,982.879
C1703.67,972.074,1843.76,978.061,1962.96,998.907
C2083.83,1020.05,2219.46,1062.78,2330.71,1114.57
C2443.51,1167.08,2565.07,1244.62,2660.38,1324.61
C2757,1405.69,2855.61,1513.58,2927.88,1616.96
C3001.12,1721.74,3069.28,1853.29,3112.83,1973.49"/>
<path d="M3282.54,2368.17
C3272.56,2271.63,3275.88,2159.21,3291.34,2063.4
C3307.08,1965.9,3340.08,1856.31,3380.61,1766.25
C3421.85,1674.63,3483.24,1575.7,3546.87,1497.95
C3611.58,1418.87,3698.02,1337.94,3781.06,1278.4
C3865.49,1217.86,3971.74,1161.23,4069,1124.71
C4167.86,1087.58,4287.1,1060.05,4392.21,1049.89
C4499.02,1039.55,4623.3,1044.02,4729.13,1061.78
C4836.65,1079.84,4957.4,1117.01,5056.54,1162.37
C5157.24,1208.43,5265.86,1276.75,5351.14,1347.39
C5437.74,1419.12,5526.25,1514.75,5591.24,1606.5
C5657.23,1699.66,5718.79,1816.74,5758.33,1923.84
C5798.46,2032.53,5827.95,2163.52,5838.48,2278.91
C5849.17,2396,5843.56,2532.14,5823.49,2647.99
C5803.12,2765.53,5761.77,2897.43,5711.59,3005.66
C5660.69,3115.43,5585.46,3233.76,5507.81,3326.56
C5429.07,3420.67,5324.24,3516.76,5223.77,3587.21
C5121.89,3658.64,4993.96,3725.15,4877.04,3767.69
C4758.51,3810.82,4615.77,3842.28,4490.1,3853.18
C4362.73,3864.22,4214.74,3857.47,4088.87,3835.08
C3961.31,3812.4,3818.24,3766.88,3700.94,3711.88"/>
<path d="M3662.21,3784.72
C3750.8,3824.35,3846.5,3883.43,3921.74,3944.73
C3998.31,4007.1,4076.72,4090.48,4134.45,4170.61
C4193.17,4252.13,4248.15,4354.76,4283.67,4448.75
C4319.8,4544.33,4346.67,4659.65,4356.71,4761.34
C4366.93,4864.73,4362.85,4985.05,4345.85,5087.54
C4328.57,5191.72,4292.79,5308.75,4249.04,5404.86
C4204.58,5502.53,4138.57,5607.93,4070.27,5690.7
C4000.88,5774.79,3908.31,5860.77,3819.46,5923.95
C3729.22,5988.12,3615.74,6048.04,3511.93,6086.57
C3406.51,6125.7,3279.44,6154.54,3167.47,6164.95
C3053.81,6175.52,2921.63,6170.29,2809.11,6150.98
C2694.92,6131.39,2566.73,6091.43,2461.53,6042.86
C2354.79,5993.57,2239.69,5920.65,2149.4,5845.33
C2057.79,5768.93,1964.23,5667.17,1895.6,5569.6
C1825.98,5470.63,1761.12,5346.31,1719.58,5232.67
C1677.45,5117.41,1646.65,4978.59,1635.87,4856.35
C1624.95,4732.41,1631.32,4588.37,1652.93,4465.83
C1674.85,4341.62,1718.97,4202.27,1772.37,4088
C1826.49,3972.17,1906.33,3847.38,1988.66,3749.56
C2072.08,3650.44,2183.03,3549.3,2289.32,3475.21"/>
<path stroke="rgb(255,255,255)" d="M3855.87,3420.5
C3761.22,3377.66,3659.06,3313.96,3578.8,3247.99
C3497.22,3180.94,3413.76,3091.44,3352.4,3005.49
C3290.04,2918.15,3231.77,2808.29,3194.24,2707.76
C3156.11,2605.62,3127.93,2482.46,3117.64,2373.92
C3107.19,2263.68,3112.03,2135.45,3130.57,2026.28
C3149.4,1915.42,3187.96,1790.96,3234.92,1688.79"/>
<path d="M3063.82,3196.76
C3198.04,3185.48,3353.95,3192.99,3486.5,3216.91
C3620.73,3241.14,3771.24,3289.44,3894.6,3347.66"/>
<path stroke="rgb(255,255,255)" d="M3066.7,3279.21
C3194.07,3268.16,3342.07,3274.91,3467.94,3297.3
C3595.5,3319.98,3738.56,3365.5,3855.865,3420.505
C3948.95,3462.65,4062.26,3497.04,4163.1,3513.54
C4262.25,3529.77,4378.62,3533.47,4478.59,3523.38
C4576.85,3513.45,4688.25,3487.24,4780.56,3452.11
C4871.26,3417.59,4970.28,3364.26,5048.89,3307.35
C5126.12,3251.44,5206.43,3175.56,5266.47,3101.5
C5325.42,3028.76,5382.21,2936.3,5420.22,2850.73
C5457.54,2766.73,5487.76,2664.58,5501.94,2573.76
C5515.87,2484.62,5518.43,2380.11,5508.68,2290.43
C5499.12,2202.44,5474.87,2102.78,5442.75,2020.32
C5411.25,1939.44,5362.85,1851.27,5311.39,1781.38
C5260.93,1712.87,5192.63,1641.75,5126.08,1588.73
C5060.87,1536.78,4978.1,1486.92,4901.61,1453.74
C4826.69,1421.24,4735.7,1395.19,4654.9,1383.33
C4575.79,1371.71,4483.13,1370.29,4403.73,1379.68
C4326.02,1388.88,4238.11,1411.16,4165.48,1440.29
C4094.44,1468.78,4017.1,1512.23,3955.94,1558.25
C3896.14,1603.25,3834.21,1663.98,3788.22,1723.01
C3743.27,1780.7,3700.33,1853.76,3671.98,1921.18
C3644.3,1987.02,3622.43,2066.85,3612.89,2137.63
C3603.57,2206.72,3603.29,2287.52,3612.34,2356.65
C3621.16,2424.08,3641.48,2500.24,3667.61,2563.03
C3693.08,2624.25,3731.6,2690.75,3772.18,2743.18
C3811.72,2794.26,3864.87,2847,3916.39,2885.97
C3966.55,2923.91,4029.92,2959.94,4088.25,2983.44
C4145.01,3006.31,4213.69,3024.01,4274.45,3031.23
C4333.52,3038.24,4402.47,3037.38,4461.31,3028.68
C4518.47,3020.23,4582.88,3001.88,4635.83,2978.74
C4687.22,2956.29,4742.88,2922.71,4786.58,2887.57
C4828.96,2853.49,4872.5,2807.91,4904.45,2763.91
C4935.39,2721.28,4964.5,2667.6,4983.16,2618.34
C5001.22,2570.67,5014.75,2513.15,5019.63,2462.41
C5024.35,2413.36,5022.35,2356.26,5013.98,2307.7
C5005.91,2260.81,4989.53,2208.14,4969.38,2165.04
C4949.95,2123.48,4921.31,2078.65,4891.6,2043.69
C4862.99,2010.02,4824.99,1975.66,4788.49,1950.75
C4753.4,1926.8,4709.41,1904.6,4669.23,1890.8
C4630.64,1877.54,4584.27,1868.18,4543.55,1865.64
C4504.52,1863.2,4459.27,1866.35,4421,1874.38
C4384.38,1882.07,4343.45,1896.49,4310.2,1913.66
C4278.45,1930.05,4244.46,1953.75,4218.25,1978.04
C4193.27,2001.18,4168.09,2031.61,4150.24,2060.6
C4133.26,2088.16,4117.97,2122.45,4109.04,2153.57
C4100.57,2183.06,4095.38,2218.29,4095.2,2248.98
C4095.03,2278,4099.32,2311.4,4107.04,2339.37
C4114.31,2365.74,4126.78,2394.94,4140.98,2418.31
C4154.32,2440.26,4173.1,2463.44,4191.96,2480.87
C4209.62,2497.18,4232.49,2513.18,4253.98,2523.95
C4273.99,2533.99,4298.62,2542.37,4320.64,2546.39
C4341.06,2550.11,4365.16,2551.14,4385.8,2548.92
C4404.83,2546.87,4426.41,2541.43,4444.04,2533.98
C4460.19,2527.16,4477.68,2516.64,4491.11,2505.37
C4503.33,2495.11,4515.71,2481.24,4524.27,2467.78
C4532.01,2455.63,4538.85,2440.28,4542.43,2426.32
C4545.63,2413.82,4547.11,2398.82,4546.1,2385.95
C4545.21,2374.53,4542.05,2361.49,4537.32,2351.05
C4533.15,2341.86,4526.51,2332.03,4519.29,2324.98
C4512.95,2318.79,4504.26,2312.96,4496.01,2309.77
C4488.74,2306.95,4479.59,2305.4,4471.82,2306
C4464.84,2306.53,4456.82,2309.03,4450.9,2312.77
C4445.36,2316.28,4439.92,2322.06,4436.84,2327.86
C4433.75,2333.65,4428.32,2339.43,4422.77,2342.94
C4416.86,2346.68,4408.83,2349.18,4401.86,2349.72
C4394.08,2350.31,4384.93,2348.76,4377.67,2345.95
C4369.41,2342.75,4360.72,2336.92,4354.39,2330.74
C4347.17,2323.68,4340.52,2313.85,4336.36,2304.66
C4331.63,2294.22,4328.47,2281.18,4327.57,2269.76
C4326.56,2256.9,4328.04,2241.89,4331.25,2229.39
C4334.83,2215.44,4341.66,2200.08,4349.4,2187.93
C4357.97,2174.47,4370.34,2160.6,4382.57,2150.34
C4396,2139.07,4413.49,2128.56,4429.64,2121.73
C4447.27,2114.28,4468.85,2108.85,4487.87,2106.8
C4508.51,2104.57,4532.61,2105.6,4553.03,2109.33
C4575.06,2113.35,4599.68,2121.73,4619.7,2131.76
C4641.18,2142.53,4664.06,2158.53,4681.71,2174.84
C4700.58,2192.28,4719.35,2215.45,4732.69,2237.4
C4746.9,2260.78,4759.36,2289.97,4766.64,2316.34
C4774.35,2344.31,4778.65,2377.71,4778.48,2406.73
C4778.29,2437.42,4773.1,2472.65,4764.63,2502.15
C4755.7,2533.26,4740.41,2567.56,4723.44,2595.11
C4705.58,2624.1,4680.41,2654.54,4655.43,2677.68
C4629.22,2701.96,4595.22,2725.66,4563.47,2742.06
C4530.22,2759.22,4489.29,2773.65,4452.67,2781.33
C4414.4,2789.36,4369.16,2792.51,4330.13,2790.07
C4289.41,2787.53,4243.03,2778.17,4204.45,2764.92
C4164.26,2751.11,4120.28,2728.91,4085.18,2704.96
C4048.69,2680.05,4010.68,2645.7,3982.07,2612.03
C3952.36,2577.06,3923.72,2532.24,3904.29,2490.67
C3884.15,2447.57,3867.76,2394.9,3859.69,2348.01
C3851.33,2299.45,3849.32,2242.36,3854.04,2193.31
C3858.92,2142.57,3872.46,2085.04,3890.51,2037.37
C3909.17,1988.11,3938.28,1934.43,3969.23,1891.8
C4001.17,1847.8,4044.72,1802.22,4087.09,1768.15
C4130.79,1733,4186.45,1699.43,4237.84,1676.97
C4290.79,1653.84,4355.2,1635.48,4412.36,1627.03
C4471.21,1618.33,4540.15,1617.47,4599.22,1624.48
C4659.99,1631.7,4728.66,1649.4,4785.42,1672.27
C4843.76,1695.77,4907.13,1731.8,4957.29,1769.74
C5008.8,1808.71,5061.96,1861.45,5101.49,1912.53
C5142.08,1964.96,5180.59,2031.47,5206.06,2092.68
C5232.19,2155.47,5252.51,2231.63,5261.33,2299.06
C5270.38,2368.19,5270.1,2448.99,5260.79,2518.08
C5251.25,2588.86,5229.37,2668.7,5201.69,2734.54
C5173.35,2801.95,5130.4,2875.02,5085.46,2932.7
C5039.46,2991.74,4977.54,3052.46,4917.74,3097.46
C4856.58,3143.48,4779.24,3186.94,4708.19,3215.43
C4635.57,3244.55,4547.66,3266.83,4469.95,3276.03
C4390.54,3285.42,4297.89,3284,4218.77,3272.39
C4137.97,3260.52,4046.98,3234.47,3972.06,3201.97
C3895.57,3168.79,3812.8,3118.93,3747.59,3066.98
C3681.04,3013.96,3612.74,2942.85,3562.29,2874.34
C3510.82,2804.45,3462.43,2716.27,3430.92,2635.4
C3398.8,2552.93,3374.55,2453.27,3364.99,2365.29
C3355.25,2275.6,3357.81,2171.09,3371.73,2081.96
C3385.92,1991.14,3416.13,1888.99,3453.45,1804.98
C3491.47,1719.42,3548.25,1626.95,3607.21,1554.21
C3667.24,1480.15,3747.55,1404.27,3824.78,1348.36
C3903.39,1291.45,4002.41,1238.12,4093.12,1203.6
C4185.42,1168.48,4296.83,1142.26,4395.09,1132.34
C4495.05,1122.24,4611.42,1125.94,4710.57,1142.17
C4811.41,1158.68,4924.72,1193.07,5017.81,1235.21
C5112.45,1278.06,5214.61,1341.76,5294.88,1407.72
C5376.46,1474.78,5459.92,1564.28,5521.28,1650.22
C5583.63,1737.56,5641.91,1847.42,5679.44,1947.96
C5717.56,2050.1,5745.74,2173.25,5756.03,2281.79
C5766.48,2392.03,5761.64,2520.26,5743.1,2629.43
C5724.28,2740.29,5685.71,2864.76,5638.75,2966.92
C5591.07,3070.65,5520.45,3182.51,5447.48,3270.29
C5373.41,3359.39,5274.71,3450.43,5180.05,3517.24
C5083.99,3585.05,4963.29,3648.26,4852.92,3688.8
C4740.94,3729.93,4606.04,3760.07,4487.22,3770.73
C4366.71,3781.53,4226.62,3775.55,4107.42,3754.7
C3986.55,3733.56,3850.92,3690.82,3739.67,3639.035
C3640.53,3593.68,3519.78,3556.51,3412.26,3538.45
C3306.43,3520.69,3182.15,3516.22,3075.34,3526.56
C2970.23,3536.72,2850.99,3564.25,2752.13,3601.38
C2654.87,3637.9,2548.62,3694.53,2464.19,3755.07
C2381.15,3814.61,2294.72,3895.54,2230,3974.62
C2166.37,4052.37,2104.98,4151.3,2063.74,4242.92
C2023.21,4332.98,1990.21,4442.57,1974.47,4540.07
C1959.01,4635.88,1955.69,4748.3,1965.67,4844.84
C1975.48,4939.67,2001.04,5047.16,2035.16,5136.19
C2068.67,5223.61,2120.36,5319.02,2175.45,5394.72
C2229.54,5469.05,2302.9,5546.29,2374.46,5603.99
C2444.69,5660.61,2533.92,5715.08,2616.46,5751.49
C2697.44,5787.2,2795.87,5816.03,2883.35,5829.44
C2969.14,5842.6,3069.7,5844.78,3155.96,5835.15
C3240.52,5825.71,3336.26,5802.12,3415.45,5770.99
C3493.04,5740.49,3577.61,5693.75,3644.59,5644.09
C3710.19,5595.46,3778.25,5529.68,3828.92,5465.64
C3878.54,5402.94,3926.1,5323.4,3957.66,5249.94
C3988.56,5178.04,4013.21,5090.77,4024.3,5013.31
C4035.15,4937.54,4036.19,4848.83,4026.91,4772.86
C4017.84,4698.57,3996.22,4614.58,3968.09,4545.23
C3940.61,4477.46,3898.8,4403.74,3854.59,4345.48
C3811.41,4288.59,3753.21,4229.73,3696.68,4186.08
C3641.51,4143.46,3571.67,4102.82,3507.28,4076.09
C3444.47,4050.02,3368.35,4029.53,3300.91,4020.77
C3235.16,4012.22,3158.31,4012.32,3092.62,4021.25
C3028.61,4029.95,2956.36,4049.62,2896.85,4074.75
C2838.91,4099.21,2776.02,4136.08,2726.5,4174.85
C2678.32,4212.57,2628.65,4263.2,2592.02,4312.21
C2556.41,4359.86,2522.69,4420,2500.8,4475.31
C2479.54,4529.04,2463.23,4594,2456.79,4651.42
C2450.54,4707.15,2451.78,4772.14,2460.37,4827.56
C2468.7,4881.3,2486.39,4941.8,2508.53,4991.46
C2529.98,5039.57,2561.91,5091.63,2595.24,5132.41
C2627.49,5171.89,2670.55,5212.37,2712.05,5241.97
C2752.17,5270.58,2802.61,5297.39,2848.85,5314.43
C2893.49,5330.88,2947.3,5343.03,2994.7,5347.13
C3040.41,5351.09,3093.55,5348.7,3138.68,5340.45
C3182.15,5332.51,3230.9,5316.77,3270.72,5297.62
C3309.01,5279.2,3350.23,5252.21,3382.28,5224.31
C3413.05,5197.52,3444.34,5162.04,3466.9,5128.05
C3488.53,5095.47,3508.42,5054.71,3520.6,5017.55
C3532.26,4981.99,3540.23,4939.34,3541.99,4901.96
C3543.67,4866.27,3540.14,4824.97,3532.22,4790.13
C3524.67,4756.93,3510.9,4719.91,3494.72,4689.95
C3479.34,4661.47,3457.28,4631.08,3434.81,4607.79
C3413.49,4585.71,3385.58,4563.6,3359.09,4548.1
C3334.05,4533.44,3302.98,4520.46,3274.89,4513.15
C3248.42,4506.27,3216.91,4502.47,3189.56,4503.08
C3163.88,4503.66,3134.42,4508.33,3109.89,4515.95
C3086.94,4523.08,3061.65,4534.9,3041.58,4548.12
C3022.88,4560.43,3003.31,4577.57,2988.81,4594.63
C2975.38,4610.45,2962.43,4630.81,2954.04,4649.8
C2946.3,4667.3,2940.22,4688.71,2937.86,4707.7
C2935.69,4725.1,2936.06,4745.5,2939.1,4762.77
C2941.87,4778.48,2947.7,4796.14,2955.07,4810.28
C2961.73,4823.06,2971.6,4836.66,2981.9,4846.74
C2991.12,4855.76,3003.38,4864.55,3015.02,4870.1
C3025.36,4875.04,3038.24,4878.82,3049.64,4879.95
C3059.68,4880.94,3071.52,4880.1,3081.24,4877.37
C3089.76,4874.98,3099.16,4870.37,3106.05,4864.82
C3112.12,4859.93,3118.04,4852.78,3121.41,4845.75
C3124.44,4839.44,3126.28,4831.24,3126,4824.25
C3125.73,4817.69,3123.45,4810.09,3119.97,4804.53
C3116.49,4798.96,3114.2,4791.36,3113.94,4784.8
C3113.65,4777.81,3115.5,4769.61,3118.53,4763.3
C3121.9,4756.28,3127.82,4749.13,3133.89,4744.24
C3140.78,4738.68,3150.18,4734.08,3158.7,4731.68
C3168.42,4728.96,3180.26,4728.12,3190.3,4729.11
C3201.7,4730.23,3214.58,4734.01,3224.91,4738.95
C3236.56,4744.51,3248.81,4753.29,3258.03,4762.32
C3268.33,4772.39,3278.21,4785.99,3284.87,4798.77
C3292.24,4812.92,3298.06,4830.57,3300.83,4846.28
C3303.88,4863.55,3304.24,4883.95,3302.08,4901.36
C3299.71,4920.34,3293.63,4941.75,3285.89,4959.26
C3277.5,4978.24,3264.56,4998.6,3251.12,5014.42
C3236.63,5031.48,3217.06,5048.62,3198.36,5060.94
C3178.29,5074.16,3153,5085.97,3130.05,5093.1
C3105.51,5100.72,3076.06,5105.4,3050.37,5105.97
C3023.03,5106.59,2991.51,5102.78,2965.04,5095.9
C2936.96,5088.6,2905.89,5075.61,2880.84,5060.96
C2854.35,5045.46,2826.44,5023.34,2805.13,5001.26
C2782.65,4977.97,2760.59,4947.58,2745.22,4919.1
C2729.04,4889.14,2715.27,4852.12,2707.72,4818.92
C2699.8,4784.08,2696.27,4742.79,2697.94,4707.09
C2699.7,4669.72,2707.67,4627.06,2719.33,4591.5
C2731.51,4554.34,2751.41,4513.59,2773.03,4481
C2795.59,4447.01,2826.89,4411.53,2857.66,4384.74
C2889.71,4356.84,2930.92,4329.85,2969.21,4311.43
C3009.03,4292.28,3057.79,4276.55,3101.25,4268.6
C3146.39,4260.35,3199.53,4257.97,3245.24,4261.92
C3292.64,4266.03,3346.45,4278.17,3391.09,4294.62
C3437.32,4311.67,3487.77,4338.47,3527.89,4367.09
C3569.39,4396.69,3612.44,4437.17,3644.7,4476.64
C3678.03,4517.43,3709.96,4569.48,3731.4,4617.59
C3753.54,4667.26,3771.24,4727.76,3779.57,4781.49
C3788.15,4836.91,3789.4,4901.9,3783.15,4957.63
C3776.71,5015.06,3760.4,5080.02,3739.13,5133.74
C3717.25,5189.05,3683.52,5249.2,3647.91,5296.84
C3611.28,5345.86,3561.61,5396.48,3513.43,5434.2
C3463.91,5472.97,3401.02,5509.84,3343.08,5534.31
C3283.57,5559.44,3211.33,5579.1,3147.32,5587.8
C3081.62,5596.73,3004.77,5596.83,2939.02,5588.29
C2871.58,5579.52,2795.47,5559.03,2732.65,5532.96
C2668.27,5506.23,2598.43,5465.59,2543.25,5422.98
C2486.73,5379.32,2428.52,5320.46,2385.35,5263.57
C2341.14,5205.32,2299.33,5131.59,2271.85,5063.82
C2243.72,4994.47,2222.09,4910.48,2213.02,4836.2
C2203.74,4760.22,2204.78,4671.51,2215.63,4595.74
C2226.72,4518.28,2251.38,4431.01,2282.27,4359.12
C2313.84,4285.65,2361.4,4206.12,2411.01,4143.41
C2461.69,4079.37,2529.74,4013.59,2595.35,3964.96
C2662.33,3915.31,2746.89,3868.56,2824.49,3838.06
C2903.68,3806.94,2999.42,3783.34,3083.98,3773.91
C3170.24,3764.28,3270.8,3766.46,3356.59,3779.61
C3444.07,3793.02,3542.5,3821.85,3623.48,3857.57
C3706.02,3893.97,3795.25,3948.44,3865.48,4005.07
C3937.04,4062.76,4010.39,4140.01,4064.48,4214.33
C4119.58,4290.03,4171.26,4385.44,4204.78,4472.87
C4238.9,4561.89,4264.46,4669.38,4274.26,4764.22
C4284.24,4860.75,4280.92,4973.17,4265.46,5068.98
C4249.73,5166.48,4216.73,5276.07,4176.19,5366.13
C4134.96,5457.75,4073.56,5556.68,4009.93,5634.43
C3945.22,5713.51,3858.78,5794.44,3775.74,5853.99
C3691.31,5914.53,3585.07,5971.15,3487.81,6007.68
C3388.95,6044.8,3269.71,6072.33,3164.6,6082.5
C3057.78,6092.83,2933.5,6088.37,2827.67,6070.6
C2720.15,6052.55,2599.41,6015.37,2500.27,5970.02
C2399.57,5923.95,2290.94,5855.64,2205.66,5785
C2119.07,5713.27,2030.56,5617.64,1965.56,5525.88
C1899.58,5432.73,1838.01,5315.64,1798.47,5208.55
C1758.35,5099.85,1728.85,4968.86,1718.32,4853.47
C1707.64,4736.38,1713.24,4600.25,1733.32,4484.39
C1753.69,4366.85,1795.03,4234.95,1845.21,4126.73
C1896.11,4016.95,1971.34,3898.63,2048.99,3805.83
C2127.74,3711.71,2232.56,3615.63,2333.04,3545.175
C2421.89,3481.99,2514.45,3396.01,2583.85,3311.92
C2652.15,3229.15,2718.15,3123.76,2762.61,3026.09
C2806.36,2929.97,2842.14,2812.95,2859.42,2708.77
C2876.42,2606.27,2880.5,2485.95,2870.29,2382.56
C2860.24,2280.88,2833.37,2165.55,2797.25,2069.97
C2761.73,1975.99,2706.75,1873.36,2648.02,1791.83
C2590.29,1711.7,2511.89,1628.33,2435.32,1565.95
C2360.07,1504.66,2264.38,1445.57,2175.78,1405.95
C2088.75,1367.02,1982.88,1335.41,1888.72,1320.45
C1796.25,1305.76,1687.78,1302.82,1594.67,1312.68
C1503.26,1322.36,1399.69,1347.26,1313.94,1380.39
C1229.79,1412.9,1138,1462.94,1065.2,1516.22
C993.788,1568.49,919.606,1639.32,864.25,1708.37
C809.963,1776.09,757.795,1862.09,723.003,1941.61
C688.897,2019.56,661.459,2114.27,648.82,2198.41
C636.435,2280.86,634.636,2377.47,644.146,2460.3
C653.462,2541.43,676.4,2633.26,706.525,2709.17
C736.02,2783.49,781.119,2864.44,828.957,2928.51
C875.773,2991.21,939.025,3056.2,1000.56,3104.54
C1060.76,3151.82,1137.06,3197.07,1207.5,3227.02
C1276.36,3256.31,1359.92,3279.58,1434.04,3289.89
C1506.47,3299.97,1591.22,3300.63,1663.77,3291.47
C1734.63,3282.52,1814.71,3261.55,1880.78,3234.42
C1945.27,3207.95,2015.38,3167.79,2070.73,3125.39
C2124.71,3084.03,2180.51,3028.35,2221.83,2974.33
C2262.1,2921.66,2300.44,2855.06,2325.55,2793.7
C2350.02,2733.91,2369.12,2661.52,2377.11,2597.42
C2384.89,2535.01,2384.4,2462.11,2375.59,2399.84
C2367.01,2339.25,2348.01,2270.92,2323.88,2214.69
C2300.41,2160.03,2265.19,2100.76,2228.24,2054.14
C2192.34,2008.87,2144.24,1962.26,2097.73,1927.97
C2052.59,1894.7,1995.68,1863.28,1943.39,1843
C1892.69,1823.35,1831.45,1808.42,1777.37,1802.76
C1724.98,1797.28,1663.94,1798.9,1611.95,1807.38
C1561.64,1815.58,1505.05,1832.62,1458.67,1853.76
C1413.83,1874.2,1365.39,1904.48,1327.51,1936
C1290.94,1966.44,1253.52,2006.96,1226.27,2045.96
C1199.99,2083.57,1175.49,2130.78,1160.06,2174
C1145.21,2215.61,1134.46,2265.7,1131.13,2309.76
C1127.94,2352.13,1130.71,2401.32,1138.84,2443.02
C1146.66,2483.07,1161.74,2527.91,1179.9,2564.44
C1197.3,2599.46,1222.65,2637.07,1248.74,2666.2
C1273.71,2694.07,1306.66,2722.31,1338.15,2742.52
C1368.22,2761.82,1405.75,2779.41,1439.89,2789.97
C1472.41,2800.03,1511.36,2806.61,1545.39,2807.58
C1577.74,2808.5,1615.09,2804.59,1646.5,2796.77
C1676.28,2789.36,1709.39,2776.24,1736.06,2761.05
C1761.27,2746.69,1788.05,2726.28,1808.42,2705.61
C1827.61,2686.12,1846.67,2660.73,1859.8,2636.74
C1872.15,2614.21,1882.83,2586.37,1888.49,2561.31
C1893.79,2537.87,1896.21,2510.06,1894.8,2486.06
C1893.48,2463.71,1888.42,2438.2,1880.89,2417.11
C1873.91,2397.57,1862.75,2376.18,1850.5,2359.42
C1839.22,2343.97,1823.72,2328,1808.45,2316.45
C1794.47,2305.88,1776.62,2295.99,1760.14,2289.99
C1745.15,2284.53,1726.95,2280.75,1711.01,2280.06
C1696.61,2279.44,1679.9,2281.2,1666.02,2285.08
C1653.59,2288.55,1639.86,2294.77,1629.22,2302.07
C1619.78,2308.56,1610.06,2317.82,1603.39,2327.13
C1597.51,2335.33,1592.32,2346.01,1589.82,2355.79
C1587.64,2364.36,1586.93,2374.8,1588.29,2383.55
C1589.49,2391.25,1592.72,2399.95,1597.12,2406.38
C1601.07,2412.16,1607.25,2417.86,1613.45,2421.11
C1619.26,2424.16,1626.98,2425.98,1633.54,2425.75
C1640.1,2425.52,1647.82,2427.34,1653.64,2430.39
C1659.84,2433.64,1666.01,2439.34,1669.96,2445.12
C1674.36,2451.55,1677.6,2460.25,1678.79,2467.95
C1680.16,2476.69,1679.45,2487.14,1677.26,2495.71
C1674.76,2505.49,1669.57,2516.16,1663.69,2524.37
C1657.02,2533.68,1647.3,2542.94,1637.86,2549.42
C1627.23,2556.73,1613.49,2562.95,1601.07,2566.42
C1587.19,2570.3,1570.47,2572.06,1556.08,2571.44
C1540.14,2570.75,1521.94,2566.96,1506.95,2561.51
C1490.47,2555.51,1472.62,2545.62,1458.63,2535.05
C1443.37,2523.5,1427.87,2507.53,1416.58,2492.08
C1404.34,2475.32,1393.18,2453.93,1386.19,2434.39
C1378.66,2413.3,1373.61,2387.79,1372.29,2365.43
C1370.88,2341.44,1373.29,2313.63,1378.59,2290.19
C1384.26,2265.13,1394.94,2237.29,1407.28,2214.76
C1420.42,2190.77,1439.47,2165.38,1458.67,2145.89
C1479.03,2125.22,1505.82,2104.81,1531.03,2090.45
C1557.7,2075.26,1590.81,2062.14,1620.59,2054.73
C1651.99,2046.91,1689.34,2043,1721.7,2043.92
C1755.73,2044.89,1794.67,2051.47,1827.2,2061.53
C1861.34,2072.09,1898.86,2089.68,1928.93,2108.98
C1960.42,2129.19,1993.38,2157.43,2018.34,2185.3
C2044.44,2214.43,2069.78,2252.04,2087.19,2287.06
C2105.35,2323.59,2120.43,2368.43,2128.24,2408.47
C2136.38,2450.18,2139.15,2499.37,2135.95,2541.74
C2132.63,2585.8,2121.88,2635.89,2107.02,2677.5
C2091.6,2720.71,2067.1,2767.93,2040.81,2805.54
C2013.56,2844.54,1976.14,2885.06,1939.57,2915.5
C1901.7,2947.02,1853.26,2977.3,1808.42,2997.74
C1762.03,3018.88,1705.45,3035.92,1655.14,3044.12
C1603.15,3052.59,1542.1,3054.22,1489.71,3048.74
C1435.63,3043.08,1374.39,3028.15,1323.69,3008.49
C1271.41,2988.22,1214.5,2956.8,1169.36,2923.53
C1122.85,2889.24,1074.75,2842.63,1038.85,2797.36
C1001.89,2750.74,966.671,2691.47,943.21,2636.8
C919.078,2580.58,900.071,2512.25,891.495,2451.66
C882.681,2389.39,882.197,2316.49,889.977,2254.08
C897.968,2189.98,917.063,2117.58,941.533,2057.8
C966.649,1996.44,1004.98,1929.83,1045.26,1877.17
C1086.57,1823.14,1142.37,1767.47,1196.36,1726.11
C1251.7,1683.71,1321.82,1643.55,1386.31,1617.07
C1452.38,1589.95,1532.45,1568.97,1603.31,1560.03
C1675.86,1550.87,1760.62,1551.52,1833.05,1561.61
C1907.17,1571.92,1990.72,1595.19,2059.59,1624.47
C2130.03,1654.43,2206.33,1699.68,2266.52,1746.96
C2328.06,1795.3,2391.31,1860.29,2438.13,1922.99
C2485.97,1987.06,2531.07,2068.01,2560.56,2142.33
C2590.69,2218.24,2613.62,2310.06,2622.94,2391.2
C2632.45,2474.03,2630.65,2570.64,2618.27,2653.09
C2605.63,2737.23,2578.19,2831.94,2544.08,2909.89
C2509.29,2989.41,2457.12,3075.41,2402.84,3143.13
C2347.48,3212.18,2273.3,3283.01,2201.88,3335.28
C2129.08,3388.56,2037.29,3438.6,1953.14,3471.11
C1867.4,3504.23,1763.82,3529.14,1672.41,3538.82
C1579.3,3548.68,1470.84,3545.74,1378.36,3531.05
C1284.2,3516.09,1178.33,3484.48,1091.3,3445.55
C1002.71,3405.93,907.013,3346.84,831.768,3285.55
C755.197,3223.17,676.791,3139.8,619.065,3059.67
C560.34,2978.14,505.36,2875.51,469.839,2781.53
C433.714,2685.95,406.844,2570.62,396.797,2468.94
C386.582,2365.55,390.665,2245.22,407.664,2142.73
C424.942,2038.55,460.724,1921.53,504.474,1825.41
C548.932,1727.74,614.937,1622.35,683.24,1539.58
C752.632,1455.49,845.198,1369.51,934.05,1306.33
C1024.29,1242.16,1137.77,1182.24,1241.58,1143.7
C1347,1104.58,1474.07,1075.74,1586.04,1065.33
C1699.7,1054.76,1831.89,1059.99,1944.4,1079.29
C2058.6,1098.89,2186.78,1138.84,2291.98,1187.42
C2398.73,1236.71,2513.82,1309.63,2604.11,1384.94
C2695.72,1461.35,2789.28,1563.11,2857.91,1660.68
C2927.53,1759.65,2992.39,1883.96,3033.93,1997.61
C3076.06,2112.86,3106.86,2251.69,3117.64,2373.92"/>
</g>
<path stroke="none" fill="rgb(255,255,255)" d="M3024.28,2721.715
C3004.37,2848.93,2960.58,2991.93,2905.98,3108.51
C2850.54,3226.91,2767.21,3353.88,2680.91,3452.13
C2801.03,3405.76,2946.77,3372.19,3075.04,3361.18
C3205.3,3350,3356.92,3358.67,3485.155,3384.29
C3384.94,3303.44,3282.99,3194.02,3209.32,3088.44
C3134.51,2981.23,3066.22,2845.58,3024.28,2721.715Z"/>
</g>
</svg>
